<svg xmlns="http://www.w3.org/2000/svg" viewBox="0 0 512 512">
  <defs>
    <linearGradient id="grad1" x1="0%" y1="0%" x2="100%" y2="100%">
      <stop offset="0%" style="stop-color:#4a90e2;stop-opacity:1" />
      <stop offset="100%" style="stop-color:#9013fe;stop-opacity:1" />
    </linearGradient>
  </defs>
  <path fill="url(#grad1)" d="M448 256c0-106-86-192-192-192S64 150 64 256s86 192 192 192 192-86 192-192z"/>
  <path fill="#ffffff" d="M256 160c-13.2 0-24 10.8-24 24v32h-32c-13.2 0-24 10.8-24 24s10.8 24 24 24h32v32c0 13.2 10.8 24 24 24s24-10.8 24-24v-32h32c13.2 0 24-10.8 24-24s-10.8-24-24-24h-32v-32c0-13.2-10.8-24-24-24z"/>
  <path fill="#ffffff" d="M360 256c0-13.2-10.8-24-24-24h-16c-13.2 0-24 10.8-24 24s10.8 24 24 24h16c13.2 0 24-10.8 24-24zM192 232h-16c-13.2 0-24 10.8-24 24s10.8 24 24 24h16c13.2 0 24-10.8 24-24s-10.8-24-24-24z"/>
</svg>
